<!DOCTYPE svg PUBLIC "-//W3C//DTD SVG 1.1//EN" "http://www.w3.org/Graphics/SVG/1.1/DTD/svg11.dtd">
<!-- Uploaded to: SVG Repo, www.svgrepo.com, Transformed by: SVG Repo Mixer Tools -->
<svg fill="#ffffff" height="800px" width="800px" version="1.1" id="Layer_1" xmlns="http://www.w3.org/2000/svg" xmlns:xlink="http://www.w3.org/1999/xlink" viewBox="0 0 512 512" xml:space="preserve" stroke="#ffffff">
<g id="SVGRepo_bgCarrier" stroke-width="0"/>
<g id="SVGRepo_tracerCarrier" stroke-linecap="round" stroke-linejoin="round"/>
<g id="SVGRepo_iconCarrier"> <g> <g> <path d="M487.354,208.154c-4.606-4.607-10.226-7.597-16.149-8.97c11.1-13.213,10.437-33.017-1.989-45.442 c-10.541-10.543-26.396-12.618-39.028-6.225c-1.152-6.581-4.264-12.885-9.338-17.958c-13.126-13.126-34.485-13.126-47.609,0 l-15.986,15.986c-1.421-6.004-4.48-11.514-8.953-15.986c-6.358-6.359-14.813-9.86-23.805-9.86s-17.446,3.501-23.804,9.86 l-39.01,39.009v-49.761c0-4.427-3.589-8.016-8.016-8.016c-4.427,0-8.016,3.589-8.016,8.016v109.432 c0,6.985,8.737,10.616,13.683,5.668l50.262-50.263c6.876-6.876,18.063-6.876,24.939,0c6.797,6.798,6.797,18.141,0,24.939 l-86.537,86.537c-1.135,1.135-1.893,2.575-2.197,4.128h-9.769v-9.084c0-18.563-15.102-33.665-33.665-33.665H99.766 c-18.563,0-33.665,15.102-33.665,33.665v9.084h-9.084c-23.277,0-42.215,18.938-42.215,42.215v17.1 c0,17.4,10.584,32.372,25.65,38.825v21.025c0,4.427,3.589,8.016,8.016,8.016h91.782c0.363,1.259,81.849,83.256,81.849,83.256 c3.085,3.087,8.251,3.087,11.335,0l12.469-12.469l6.424,6.424c3.085,3.086,8.251,3.086,11.335,0l60.457-60.458 c3.13-3.13,3.13-8.206,0-11.335l-2.986-2.986h112.188c18.563,0,33.665-15.102,33.665-33.665c0-18.564-15.102-33.665-33.665-33.665 h-51.73l69.49-69.49c3.13-3.13,3.13-8.206,0-11.335c-3.13-3.13-8.206-3.13-11.335,0l-83.173,83.173 c-4.946,4.946-1.32,13.683,5.668,13.683h71.082c9.723,0,17.634,7.911,17.634,17.634c0,9.723-7.911,17.634-17.634,17.634H305.102 l-11.211-11.211c-3.13-3.13-8.206-3.13-11.335,0l-60.457,60.457c-3.13,3.13-3.13,8.206,0,11.335l12.469,12.469l-6.801,6.801 l-66.254-66.253h92.155c4.427,0,8.016-3.589,8.016-8.016v-17.634h0.534c4.427,0,8.016-3.589,8.016-8.016v-4.224l0.231,0.231 c4.743,4.743,11.051,7.356,17.759,7.356c6.709,0,13.016-2.613,17.76-7.356c9.792-9.793,9.792-25.726,0-35.519 c0,0-35.195-35.063-35.75-35.396v-10.592c0-3.167-1.84-5.896-4.507-7.198l6.383-6.383l46.721,46.721 c9.682,9.682,25.837,9.682,35.52,0c9.792-9.793,9.792-25.726,0-35.519l-46.721-46.721l38.245-38.245 c6.359-6.359,9.86-14.813,9.86-23.805c0-7.249-2.28-14.148-6.494-19.882l35.338-35.338c6.798-6.797,18.141-6.797,24.938,0 c6.797,6.798,6.797,18.141,0,24.939l-84.64,84.64c-2.919,2.918-3.112,7.739-0.426,10.876c2.998,3.5,8.501,3.72,11.762,0.46 l96.732-96.732c6.875-6.875,18.062-6.876,24.938,0c6.797,6.798,6.797,18.141,0,24.939l-96.732,96.731 c-2.919,2.918-3.112,7.739-0.426,10.876c2.998,3.5,8.501,3.72,11.762,0.46l78.594-78.594c3.331-3.33,7.759-5.165,12.469-5.165 c4.71,0,9.139,1.834,12.469,5.165c6.797,6.798,6.797,18.141,0,24.939l-17.404,17.403c-3.13,3.13-3.13,8.205,0,11.335 c3.088,3.089,8.247,3.088,11.335,0l17.404-17.403C500.481,242.638,500.481,221.28,487.354,208.154z M288.223,418.621 l18.893,18.893l-49.122,49.122l-18.893-18.893L288.223,418.621z M82.134,290.164c0-9.723,7.911-17.634,17.634-17.634h102.599 c9.723,0,17.634,7.911,17.634,17.634v9.084H82.134V290.164z M245.652,410.398H56.484v-9.633c0.178,0.002,0.355,0.014,0.534,0.014 h188.633V410.398z M254.202,384.748H57.019c-14.439,0-26.184-11.747-26.184-26.184v-17.1c0-14.438,11.747-26.184,26.184-26.184 h197.183V384.748z M270.232,340.174l24.414,24.413c3.542,3.542,3.542,9.306,0,12.847c-3.501,3.501-9.346,3.501-12.847,0 l-11.567-11.566V340.174z M343.012,316.221c3.542,3.542,3.542,9.306,0,12.847c-3.5,3.501-9.345,3.501-12.846,0l-46.721-46.721 l12.847-12.847L343.012,316.221z M336.966,165.835c-0.022,0.022-0.041,0.047-0.062,0.068c-12.57-6.16-28.206-4.031-38.643,6.406 l-36.579,36.579v-18.115c0.659-0.359,50.345-49.877,50.345-49.877c6.875-6.875,18.062-6.876,24.938,0 C343.842,147.772,343.842,158.959,336.966,165.835z"/> </g> </g> <g> <g> <path d="M228.018,25.65c-6.515,0-12.603,1.86-17.761,5.077C208.762,13.535,194.29,0,176.718,0 c-14.909,0-27.586,9.743-31.999,23.196c-5.469-3.84-12.126-6.096-19.3-6.096c-18.563,0-33.665,15.102-33.665,33.665v22.632 C86.621,70.229,80.579,68.4,74.118,68.4c-18.563,0-33.665,15.102-33.665,33.665v180.618c0,4.427,3.589,8.016,8.016,8.016 c4.427,0,8.016-3.589,8.016-8.016V102.065c0-9.723,7.911-17.634,17.634-17.634c9.723,0,17.634,7.911,17.634,17.634v42.75 c0,4.427,3.589,8.016,8.016,8.016c4.427,0,8.016-3.589,8.016-8.016V50.765c0-9.723,7.911-17.634,17.634-17.634 s17.634,7.911,17.634,17.634v94.049c0,4.427,3.589,8.016,8.016,8.016c4.427,0,8.016-3.589,8.016-8.016V33.665 c0-9.723,7.911-17.634,17.634-17.634s17.634,7.911,17.634,17.634v111.149c0,4.427,3.589,8.016,8.016,8.016 s8.016-3.589,8.016-8.016v-85.5c0-9.723,7.911-17.634,17.634-17.634s17.634,7.911,17.634,17.634v26.719 c0,4.427,3.589,8.016,8.016,8.016c4.427,0,8.016-3.589,8.016-8.016V59.315C261.683,40.752,246.581,25.65,228.018,25.65z"/> </g> </g> <g> <g> <path d="M210.918,324.898c-13.849,0-25.115,11.267-25.115,25.115c0,13.849,11.267,25.115,25.115,25.115 c13.849,0,25.115-11.267,25.115-25.115C236.033,336.165,224.766,324.898,210.918,324.898z M210.918,359.098 c-5.009,0-9.084-4.075-9.084-9.084s4.075-9.084,9.084-9.084s9.084,4.075,9.084,9.084S215.927,359.098,210.918,359.098z"/> </g> </g> <g> <g> <path d="M142.518,324.898c-13.849,0-25.115,11.267-25.115,25.115c0,13.849,11.267,25.115,25.115,25.115 s25.115-11.267,25.115-25.115C167.634,336.165,156.367,324.898,142.518,324.898z M142.518,359.098 c-5.009,0-9.084-4.075-9.084-9.084s4.075-9.084,9.084-9.084s9.084,4.075,9.084,9.084S147.527,359.098,142.518,359.098z"/> </g> </g> <g> <g> <path d="M74.118,324.898c-13.849,0-25.115,11.267-25.115,25.115c0,13.849,11.267,25.115,25.115,25.115 c13.849,0,25.116-11.267,25.116-25.115C99.234,336.165,87.967,324.898,74.118,324.898z M74.118,359.098 c-5.009,0-9.084-4.075-9.084-9.084s4.075-9.084,9.084-9.084c5.009,0,9.084,4.075,9.084,9.084S79.128,359.098,74.118,359.098z"/> </g> </g> <g> <g> <path d="M193.818,162.449h-85.5c-23.277,0-42.215,18.938-42.215,42.215s18.938,42.215,42.215,42.215h85.5 c23.277,0,42.215-18.938,42.215-42.215S217.095,162.449,193.818,162.449z M193.818,230.849h-85.5 c-14.438,0-26.184-11.747-26.184-26.184s11.745-26.184,26.184-26.184h85.5c14.438,0,26.184,11.747,26.184,26.184 S208.255,230.849,193.818,230.849z"/> </g> </g> </g>
</svg>