<!DOCTYPE svg PUBLIC "-//W3C//DTD SVG 1.1//EN" "http://www.w3.org/Graphics/SVG/1.1/DTD/svg11.dtd">
<!-- Uploaded to: SVG Repo, www.svgrepo.com, Transformed by: SVG Repo Mixer Tools -->
<svg height="800px" width="800px" version="1.1" id="Layer_1" xmlns="http://www.w3.org/2000/svg" xmlns:xlink="http://www.w3.org/1999/xlink" viewBox="0 0 511.999 511.999" xml:space="preserve" fill="#000000">
<g id="SVGRepo_bgCarrier" stroke-width="0"/>
<g id="SVGRepo_tracerCarrier" stroke-linecap="round" stroke-linejoin="round"/>
<g id="SVGRepo_iconCarrier"> <path style="fill:#65667A;" d="M123.695,121.04C161.08,65.704,224.39,29.322,296.197,29.322c114.892,0,208.03,93.138,208.03,208.03 c0,51.314-18.578,98.288-49.377,134.564L74.906,482.678c0,0-49.729-80.394-28.179-160.788c0,0,29.008,73.763,87.024,39.783 S249.784,224.92,98.112,192.596L123.695,121.04z"/> <path style="fill:#797A91;" d="M296.197,29.321c-7.785,0-15.462,0.453-23.025,1.286C383.757,42.494,469.87,136.113,469.87,249.855 c0,48.635-15.753,93.587-42.423,130.049l27.403-7.988c30.798-36.275,49.377-83.25,49.377-134.564 C504.228,122.46,411.089,29.321,296.197,29.321z"/> <path style="opacity:0.1;enable-background:new ;" d="M164.337,218.417c31.459-10.686,54.166-40.488,54.166-75.513 c0-25.731-20.933-46.664-46.663-46.664h-28.489c-7.155,7.747-13.734,16.034-19.656,24.801l-25.583,71.556 C127.601,198.881,149.161,207.829,164.337,218.417z"/> <path style="fill:#FFD782;" d="M171.841,122.148h-66.269c-16.479,0-29.837,13.358-29.837,29.837l0,0 c-50.557,12.432-67.962,44.755-67.962,44.755H138.76c29.734,0,53.837-24.103,53.837-53.837l0,0 C192.596,131.441,183.304,122.148,171.841,122.148z"/> <path style="fill:#E6C275;" d="M171.841,122.148h-31.09c11.463,0,20.756,9.293,20.756,20.756l0,0 c0,29.733-24.103,53.837-53.837,53.837h31.09c29.734,0,53.837-24.103,53.837-53.837l0,0 C192.596,131.441,183.304,122.148,171.841,122.148z"/> <circle style="fill:#FFD782;" cx="290.89" cy="298.797" r="18.115"/> <path d="M316.774,298.8c0-14.275-11.613-25.888-25.888-25.888c-14.275,0-25.888,11.613-25.888,25.888 c0,14.275,11.613,25.888,25.888,25.888C305.16,324.688,316.774,313.076,316.774,298.8z M280.542,298.8 c0-5.703,4.64-10.343,10.343-10.343c5.703,0,10.343,4.64,10.343,10.343c0,5.703-4.64,10.343-10.343,10.343 C285.182,309.143,280.542,304.504,280.542,298.8z"/> <path d="M296.197,21.549c-70.86,0-136.922,34.657-177.327,92.826h-13.298c-18.66,0-34.191,13.66-37.114,31.506 c-2.034,0.584-4.08,1.219-6.167,1.914c-4.073,1.356-6.276,5.756-4.921,9.829c1.356,4.073,5.755,6.276,9.829,4.921 c3.543-1.179,6.942-2.164,10.391-3.012c3.475-0.854,5.917-3.97,5.917-7.548c0-12.167,9.898-22.065,22.065-22.065h17.728h48.541 c7.159,0,12.983,5.824,12.983,12.983c0,25.4-20.665,46.063-46.064,46.063h-23.673H23.702c3.834-3.962,8.983-8.525,15.633-12.969 c3.569-2.386,4.529-7.212,2.143-10.781c-2.386-3.568-7.211-4.53-10.781-2.143C9.67,177.127,1.278,192.408,0.931,193.051 c-1.299,2.408-1.234,5.323,0.168,7.672c1.403,2.35,3.937,3.789,6.674,3.789h106.225c36.833,10.405,60.04,26.152,68.974,46.818 c8.592,19.878,1.87,40.285-5.284,53.904c-1.996,3.8-0.533,8.499,3.268,10.495c1.153,0.605,2.389,0.892,3.607,0.892 c2.796,0,5.498-1.513,6.887-4.16c12.518-23.833,14.52-47.105,5.79-67.3c-7.428-17.187-22.181-31.361-44.028-42.361 c0.174-0.042,0.345-0.093,0.518-0.137c0.351-0.088,0.7-0.182,1.049-0.277c10.077-2.717,19.39-8.08,26.891-15.326 c7.1-6.858,12.522-15.508,15.604-24.885c2.037-6.199,3.094-12.747,3.094-19.274c0-15.731-12.798-28.527-28.528-28.527h-33.71 c37.861-48.63,95.987-77.281,158.067-77.281c110.423,0,200.258,89.835,200.258,200.257c0,15.008-1.671,29.98-4.965,44.501 c-0.95,4.186,1.674,8.35,5.861,9.299c4.185,0.948,8.35-1.674,9.299-5.861c3.551-15.648,5.351-31.777,5.351-47.941 C512,118.357,415.192,21.549,296.197,21.549z"/> <path d="M87.093,375.503c16.027,5.545,33.047,3.149,50.586-7.124c12.324-7.219,24.249-17.069,34.487-28.486 c2.867-3.195,2.599-8.11-0.597-10.976c-3.196-2.867-8.109-2.597-10.976,0.597c-9.178,10.234-19.819,19.034-30.771,25.45 c-13.422,7.861-26.069,9.834-37.592,5.866c-24.84-8.554-38.142-41.465-38.27-41.786c-1.228-3.124-4.315-5.103-7.671-4.916 c-3.349,0.19-6.2,2.507-7.069,5.747c-11.624,43.361-3.087,86.441,6.12,114.943c9.915,30.693,22.429,51.093,22.957,51.946 c1.443,2.333,3.968,3.685,6.61,3.685c0.723,0,1.455-0.102,2.175-0.312l379.944-110.762c1.461-0.426,2.765-1.272,3.749-2.431 c14.518-17.1,26.232-36.256,34.815-56.94c1.645-3.965-0.235-8.512-4.199-10.158c-3.966-1.645-8.512,0.235-10.158,4.199 c-7.669,18.481-18.032,35.649-30.82,51.066L78.628,473.497c-8.971-16.55-35.323-71.077-28.366-128.915 C58.109,356.203,70.306,369.694,87.093,375.503z"/> </g>
</svg>