<svg xmlns="http://www.w3.org/2000/svg" viewBox="0 0 24 24" id="location"><defs><linearGradient id="a" x1="5.89" x2="18.11" y1="17.376" y2="5.155" gradientUnits="userSpaceOnUse"><stop offset="0" stop-color="#8526fe" class="stopColor5433ff svgShape"></stop><stop offset="1" stop-color="#5fe4d4" class="stopColor20bdff svgShape"></stop></linearGradient></defs><path fill="url(#a)" d="m12,2.25c-4.273,0-7.75,3.477-7.75,7.75,0,5.381,4.201,11.75,7.75,11.75s7.75-6.369,7.75-11.75c0-4.273-3.477-7.75-7.75-7.75Zm0,11.5c-2.068,0-3.75-1.682-3.75-3.75s1.682-3.75,3.75-3.75,3.75,1.682,3.75,3.75-1.682,3.75-3.75,3.75Zm2.25-3.75c0,1.241-1.009,2.25-2.25,2.25s-2.25-1.009-2.25-2.25,1.009-2.25,2.25-2.25,2.25,1.009,2.25,2.25Z"></path></svg>