<svg width="24" height="24" viewBox="0 0 24 24" fill="none" xmlns="http://www.w3.org/2000/svg">
<path fill-rule="evenodd" clip-rule="evenodd" d="M8.3499 7.49999C8.3499 5.85165 9.88718 4.34999 11.9999 4.34999C14.1126 4.34999 15.6499 5.85165 15.6499 7.49999C15.6499 9.14834 14.1126 10.65 11.9999 10.65C9.88718 10.65 8.3499 9.14834 8.3499 7.49999ZM11.9999 2.64999C9.14206 2.64999 6.6499 4.73006 6.6499 7.49999C6.6499 10.2699 9.14206 12.35 11.9999 12.35C14.8577 12.35 17.3499 10.2699 17.3499 7.49999C17.3499 4.73006 14.8577 2.64999 11.9999 2.64999ZM5.3499 18C5.3499 17.4299 5.83852 16.7628 7.17541 16.196C8.4497 15.6558 10.2053 15.35 11.9999 15.35C13.7752 15.35 15.5297 15.7073 16.8109 16.2767C17.4525 16.5619 17.9354 16.8825 18.2459 17.2019C18.5527 17.5175 18.6499 17.7849 18.6499 18C18.6499 18.0494 18.633 18.1781 18.3874 18.3821C18.1344 18.5924 17.7112 18.8153 17.0951 19.0149C15.8703 19.4116 14.0918 19.65 11.9999 19.65C9.908 19.65 8.12955 19.4116 6.90469 19.0149C6.28863 18.8153 5.8654 18.5924 5.61236 18.3821C5.36682 18.1781 5.3499 18.0494 5.3499 18ZM11.9999 13.65C10.0445 13.65 8.0501 13.9788 6.51189 14.6309C5.03628 15.2564 3.6499 16.3393 3.6499 18C3.6499 18.7153 4.03477 19.2815 4.52584 19.6896C5.0094 20.0914 5.6576 20.3979 6.38082 20.6322C7.83454 21.103 9.80609 21.35 11.9999 21.35C14.1937 21.35 16.1653 21.103 17.619 20.6322C18.3422 20.3979 18.9904 20.0914 19.474 19.6896C19.965 19.2815 20.3499 18.7153 20.3499 18C20.3499 17.2151 19.9783 16.545 19.4648 16.0169C18.955 15.4925 18.266 15.0631 17.5014 14.7233C15.9701 14.0427 13.9746 13.65 11.9999 13.65Z" fill="#7C8DB5"/>
</svg>
