<svg width="24" height="24" viewBox="0 0 24 24" fill="none" xmlns="http://www.w3.org/2000/svg">
<path fill-rule="evenodd" clip-rule="evenodd" d="M6.8499 8.99999C6.8499 7.6811 7.29049 6.39 8.1352 5.4397C8.96601 4.50505 10.2306 3.84999 11.9999 3.84999C13.7693 3.84999 15.0338 4.50505 15.8646 5.4397C16.7093 6.39 17.1499 7.6811 17.1499 8.99999C17.1499 10.2596 17.7765 11.1982 18.2541 11.9137L18.2927 11.9715C18.8109 12.7489 19.1499 13.2938 19.1499 14C19.1499 14.9742 18.4562 15.7578 17.0163 16.3363C15.5989 16.9058 13.7184 17.15 11.9999 17.15C10.2814 17.15 8.4009 16.9058 6.98347 16.3363C5.54363 15.7578 4.8499 14.9742 4.8499 14C4.8499 13.3065 5.17412 12.8297 5.69801 12.0754C6.20164 11.3504 6.8499 10.4078 6.8499 8.99999ZM11.9999 2.14999C9.76925 2.14999 8.0338 2.99494 6.86461 4.31028C5.70932 5.60998 5.1499 7.31888 5.1499 8.99999C5.1499 9.83352 4.79817 10.391 4.30179 11.1056L4.23206 11.2057C3.76246 11.8785 3.1499 12.7561 3.1499 14C3.1499 16.0257 4.6784 17.2422 6.34968 17.9137C8.04336 18.5942 10.1628 18.85 11.9999 18.85C13.837 18.85 15.9564 18.5942 17.6501 17.9137C19.3214 17.2422 20.8499 16.0257 20.8499 14C20.8499 12.7404 20.2233 11.8018 19.7457 11.0863L19.7071 11.0285C19.1889 10.2511 18.8499 9.70621 18.8499 8.99999C18.8499 7.31888 18.2905 5.60999 17.1352 4.31028C15.966 2.99494 14.2306 2.14999 11.9999 2.14999ZM9.52841 19.2928C9.91593 19.0344 10.4384 19.1363 10.7009 19.5193L10.7073 19.5278C10.7163 19.5397 10.734 19.5621 10.7602 19.5915C10.8131 19.6511 10.8969 19.7352 11.0099 19.82C11.2334 19.9876 11.5589 20.15 11.9999 20.15C12.4409 20.15 12.7664 19.9876 12.9899 19.82C13.1029 19.7352 13.1867 19.6511 13.2396 19.5915C13.2658 19.5621 13.2835 19.5397 13.2925 19.5278L13.2989 19.5193C13.5614 19.1363 14.0839 19.0344 14.4714 19.2928C14.862 19.5532 14.9675 20.0809 14.7071 20.4715L13.9999 20C14.7071 20.4715 14.7069 20.4718 14.7067 20.4721L14.7063 20.4728L14.7053 20.4742L14.7032 20.4774L14.6982 20.4847L14.6848 20.5038C14.6744 20.5184 14.6611 20.5367 14.6448 20.5581C14.6122 20.6009 14.5674 20.6566 14.5102 20.721C14.3964 20.8489 14.2302 21.0148 14.0099 21.18C13.5668 21.5123 12.8922 21.85 11.9999 21.85C11.1076 21.85 10.433 21.5123 9.9899 21.18C9.76961 21.0148 9.60336 20.8489 9.4896 20.721C9.43243 20.6566 9.38763 20.6009 9.35504 20.5581C9.33871 20.5367 9.32537 20.5184 9.315 20.5038L9.30164 20.4847L9.2966 20.4774L9.2945 20.4742L9.29354 20.4728L9.29309 20.4721C9.29287 20.4718 9.29266 20.4715 9.9999 20L9.29266 20.4715C9.03226 20.0809 9.13781 19.5532 9.52841 19.2928Z" fill="black"/>
<path d="M24 2C24 3.10457 23.1046 4 22 4C20.8954 4 20 3.10457 20 2C20 0.895431 20.8954 0 22 0C23.1046 0 24 0.895431 24 2Z" fill="#FF3B30"/>
</svg>
